<svg width="40" height="40" viewBox="0 0 40 40" fill="none" xmlns="http://www.w3.org/2000/svg">
<path d="M15.0765 8H9.9043C9.9043 9.34507 10.4393 10.635 11.3916 11.5861C12.3439 12.5373 13.6354 13.0716 14.9822 13.0716H20.1544C20.163 10.2788 17.8814 8 15.0765 8Z" fill="#00D26A"/>
<path d="M21.8013 12.6092C20.652 13.0975 19.3482 13.0975 18.1988 12.6092C14.5962 11.0929 10.4447 12.832 9.00371 16.4729C7.66543 19.8552 7.66543 23.6193 9.00371 27.0015C9.72375 28.8176 11.0915 30.3031 12.8433 31.1716C14.5951 32.0401 16.6068 32.23 18.4904 31.7047C19.4768 31.4306 20.5233 31.4306 21.5097 31.7047C23.3934 32.2348 25.4071 32.047 27.16 31.178C28.913 30.3089 30.2802 28.8205 30.9964 27.0015C32.3345 23.6176 32.3345 19.8568 30.9964 16.4729C29.564 12.832 25.4125 11.0929 21.8013 12.6092Z" fill="#F8312F"/>
</svg>
