<svg width="40" height="40" viewBox="0 0 40 40" fill="none" xmlns="http://www.w3.org/2000/svg">
<path d="M14.4879 8.12222C14.8117 7.95926 15.2065 7.95926 15.5202 8.12222L26.5729 13.8174C26.836 13.9546 26.998 14.2034 26.998 14.4607L15.004 21.2941L3 14.5456V14.4598C3 14.2025 3.16194 13.9538 3.4251 13.8251L14.4879 8.12222Z" fill="#F3C07B"/>
<path d="M15.0001 20.2186L26.498 14.3004C26.5484 14.275 26.6059 14.2613 26.6646 14.2608C26.7233 14.2602 26.7811 14.2729 26.8322 14.2975C26.8832 14.3221 26.9256 14.3577 26.9551 14.4007C26.9846 14.4437 27.0001 14.4926 27.0001 14.5423V25.1265C27.0005 25.3814 26.9234 25.6321 26.7763 25.8544C26.6291 26.0768 26.4169 26.2633 26.16 26.3959L15.3908 31.9367C15.3631 31.949 15.3334 31.9577 15.3027 31.9624C15.2754 31.9689 15.2471 31.972 15.2187 31.9718C14.9865 32.0264 14.7383 32.0008 14.5284 31.9006H14.5345L12.1094 22.5808L15.0001 20.2186Z" fill="#FFCE7C"/>
<path d="M15.004 31.6911V20.2235L3.5162 14.3054C3.46548 14.2777 3.40689 14.2622 3.34663 14.2604C3.28636 14.2587 3.22665 14.2707 3.17379 14.2953C3.12093 14.3199 3.07688 14.3561 3.0463 14.4002C3.01571 14.4442 2.99972 14.4944 3 14.5455V25.1296C3 25.6528 3.32389 26.1332 3.84008 26.3991L14.5385 31.9055C14.5841 31.93 14.6366 31.9436 14.6906 31.9451C14.7445 31.9466 14.798 31.9358 14.8454 31.914C14.8929 31.8921 14.9326 31.86 14.9604 31.8208C14.9883 31.7816 15.0034 31.7369 15.004 31.6911Z" fill="#E19747"/>
<path d="M13.6269 29.2555V27.5744C13.6269 27.3771 13.5055 27.197 13.3132 27.0941L10.4792 25.6445C10.2869 25.5502 10.0439 25.6617 10.0439 25.8504V27.5315C10.0439 27.7288 10.1654 27.9089 10.3577 28.0118L13.1917 29.4613C13.384 29.5557 13.6269 29.4442 13.6269 29.2555Z" fill="#D3D3D3"/>
<path d="M10.855 20.4822V16.571L7.53516 16.3823V19.0927C7.53516 19.1785 7.58576 19.2642 7.67686 19.3157L10.3894 20.7138C10.5918 20.8081 10.855 20.688 10.855 20.4822Z" fill="#8C5543"/>
<path d="M19.5392 10.1978L7.53516 16.3818L10.855 18.0973L22.859 11.9217L19.5392 10.1978Z" fill="#A56953"/>
</svg>
