<svg width="40" height="40" viewBox="0 0 40 40" fill="none" xmlns="http://www.w3.org/2000/svg">
<path d="M16.3525 24.0419C16.3525 25.1759 17.9868 26.0974 19.9993 26.0974C22.0118 26.0974 23.6475 25.1759 23.6475 24.0332V22.5499C23.6475 22.4532 23.7516 22.3679 23.9044 22.3391C28.683 21.4176 32 18.8648 32 15.9409V14.8487C32 11.1566 26.7333 8.07858 20.2576 8.00194C17.0034 7.95839 13.9318 8.64995 11.6011 9.92854C9.28599 11.208 8 12.9308 8 14.7642C8 15.9061 9.64853 16.8276 11.6624 16.8276C13.6764 16.8276 15.3092 15.9061 15.3092 14.7721C15.3092 14.0561 15.8087 13.382 16.7165 12.8794C17.6443 12.3696 18.8584 12.0976 20.1063 12.1199C22.6469 12.1548 24.7065 13.3828 24.7065 14.8574V15.9409C24.7065 17.2195 23.1022 18.3195 20.8771 18.5504C18.2594 18.823 16.3525 20.1103 16.3525 21.611V24.0419ZM19.868 32C20.8143 32 21.7219 31.7706 22.3911 31.3622C23.0603 30.9539 23.4362 30.4 23.4362 29.8226C23.4362 29.2451 23.0603 28.6912 22.3911 28.2829C21.7219 27.8745 20.8143 27.6451 19.868 27.6451C18.9216 27.6451 18.014 27.8745 17.3448 28.2829C16.6757 28.6912 16.2997 29.2451 16.2997 29.8226C16.2997 30.4 16.6757 30.9539 17.3448 31.3622C18.014 31.7706 18.9216 32 19.868 32Z" fill="#F8312F"/>
</svg>
