<svg width="40" height="40" viewBox="0 0 40 40" fill="none" xmlns="http://www.w3.org/2000/svg">
<path d="M17.3753 23.7706C17.3753 23.7706 18.0762 23.5924 18.8383 23.699L21.4017 24.9577C21.9919 25.528 21.9919 26.2469 21.9919 26.2469C22.0657 27.454 21.4396 28.8813 21.2056 29.5486C20.5595 31.2047 19.0417 31.9174 17.3753 31.9532L8.94515 31.9995C8.45398 32.0196 7.36517 31.52 8.49614 30.5933C9.71986 29.615 13.8453 26.6242 15.1681 25.1865C15.1681 25.1865 15.8743 24.2039 17.3753 23.7706Z" fill="#FFB02E"/>
<path d="M31.274 8.16021C31.9675 8.49212 32.2057 9.22583 31.8073 9.80057L21.7941 24.2127L19.2812 23.0143L29.2945 8.60218C29.3894 8.46542 29.5159 8.34551 29.6668 8.24928C29.8177 8.15305 29.9899 8.0824 30.1738 8.04136C30.3576 8.00031 30.5494 7.98968 30.7381 8.01008C30.9269 8.03047 31.109 8.08148 31.274 8.16021Z" fill="#7D4533"/>
<path d="M21.9907 23.9137L19.4831 22.7398C19.4831 22.7398 18.9277 22.6411 18.6599 22.9931C18.2436 23.5827 18.7379 23.7836 18.7379 23.7836L21.2655 24.9977C21.6123 25.1584 22.6284 24.7732 21.9907 23.9137Z" fill="#9B9B9B"/>
<path d="M15.5819 24.6444C15.5363 24.624 15.4862 24.6112 15.4345 24.6067C15.3829 24.6023 15.3307 24.6063 15.2809 24.6186C15.2311 24.6309 15.1848 24.6512 15.1444 24.6783C15.1041 24.7055 15.0707 24.7389 15.046 24.7768C15.0213 24.8146 15.0058 24.8561 15.0004 24.8989C14.9951 24.9418 15 24.985 15.0148 25.0263C15.0296 25.0675 15.0541 25.1059 15.0869 25.1393C15.1196 25.1727 15.16 25.2005 15.2057 25.2209L21.6352 28.0972C21.7275 28.1386 21.8358 28.1479 21.9363 28.1231C22.0368 28.0983 22.1213 28.0414 22.1712 27.9649C22.2211 27.8885 22.2323 27.7987 22.2024 27.7154C22.1724 27.6321 22.1038 27.5621 22.0115 27.5208L15.5819 24.6444ZM14.5269 25.7441C14.481 25.7227 14.4305 25.7091 14.3782 25.7041C14.3259 25.6991 14.273 25.7028 14.2224 25.7149C14.1719 25.7271 14.1248 25.7475 14.0839 25.775C14.043 25.8024 14.0092 25.8364 13.9843 25.8748C13.9595 25.9133 13.9441 25.9554 13.9392 25.9989C13.9343 26.0423 13.9399 26.0861 13.9557 26.1277C13.9715 26.1693 13.9971 26.2079 14.0311 26.2411C14.0651 26.2744 14.1068 26.3017 14.1537 26.3215L21.1767 29.4354C21.2226 29.4585 21.2737 29.4736 21.3268 29.4797C21.38 29.4859 21.4341 29.4831 21.4859 29.4714C21.5377 29.4596 21.586 29.4393 21.628 29.4116C21.67 29.3839 21.7047 29.3494 21.7301 29.3102C21.7555 29.271 21.7709 29.2279 21.7756 29.1836C21.7802 29.1393 21.7739 29.0947 21.757 29.0524C21.7401 29.0102 21.7131 28.9713 21.6775 28.938C21.6418 28.9047 21.5984 28.8778 21.5498 28.8589L14.5269 25.7441Z" fill="#F8312F"/>
</svg>
