<svg width="40" height="40" viewBox="0 0 40 40" fill="none" xmlns="http://www.w3.org/2000/svg">
<path d="M20.001 32.0001C19.1536 32.0001 18.4727 31.6132 18.4727 31.1319V19.9829H21.5445V31.1233C21.5294 31.6132 20.8484 32.0001 20.001 32.0001Z" fill="#D3D3D3"/>
<path d="M20 21.6332C23.1826 21.6332 26.2348 20.915 28.4853 19.6367C30.7357 18.3583 32 16.6245 32 14.8166C32 13.0087 30.7357 11.2749 28.4853 9.99653C26.2348 8.71817 23.1826 8 20 8C16.8174 8 13.7652 8.71817 11.5147 9.99653C9.26428 11.2749 8 13.0087 8 14.8166C8 16.6245 9.26428 18.3583 11.5147 19.6367C13.7652 20.915 16.8174 21.6332 20 21.6332Z" fill="#DC2626"/>
<path d="M20.8623 10.9311C19.2886 11.8251 19.2129 13.2176 20.6808 14.0515C22.1486 14.8853 24.6152 14.8423 26.1738 13.9483C27.7476 13.0543 27.8233 11.6618 26.3554 10.828C24.8876 9.99416 22.421 10.0371 20.8623 10.9311Z" fill="white"/>
</svg>
