<svg width="40" height="40" viewBox="0 0 40 40" fill="none" xmlns="http://www.w3.org/2000/svg">
<path d="M19.0273 16.9397L29.7838 12.8867C29.9948 12.969 30.176 13.113 30.3038 13.2999C30.4316 13.4869 30.5 13.708 30.5 13.9345V25.7927C30.5001 26.0999 30.4058 26.3997 30.23 26.6517C30.0541 26.9036 29.8052 27.0954 29.5168 27.2012L21.0335 30.3137C20.4401 30.5314 19.7931 30.5561 19.1848 30.3842C19.2854 30.4005 19.3884 30.3948 19.4865 30.3673C19.5847 30.3399 19.6757 30.2914 19.7533 30.2252C19.8309 30.1591 19.8931 30.0769 19.9357 29.9843C19.9783 29.8917 20.0003 29.7909 20 29.689V18.394C20 17.7565 19.6145 17.1805 19.0273 16.9397ZM12.6425 16.4327C12.5536 16.4192 12.4626 16.4288 12.3784 16.4606C12.2943 16.4924 12.2196 16.5453 12.1618 16.6142L11.0848 17.869L11.0428 17.911L11.0308 17.926C10.7555 18.268 10.6025 18.7045 10.6025 19.1965C10.6025 20.3222 11.4455 21.379 12.536 21.5395C12.5683 21.5455 12.5983 21.5485 12.6133 21.55H12.6163L12.635 21.5522H12.6373L12.6605 21.5567L12.6853 21.5582C13.7083 21.6257 14.5123 20.8457 14.5768 19.8062C14.6084 19.3182 14.4873 18.8325 14.2303 18.4165L14.2265 18.4105C14.169 18.321 14.114 18.2397 14.0615 18.1667L14.0608 18.1652L13.0408 16.6885L13.0378 16.684C12.9922 16.6178 12.9338 16.5615 12.866 16.5183C12.7983 16.4752 12.7218 16.4461 12.6425 16.4327ZM16.61 21.994C16.61 21.3505 17.1163 20.8157 17.792 20.9102C18.4235 20.9905 18.875 21.5927 18.875 22.204C18.875 22.8565 18.362 23.3725 17.696 23.2885H17.6893C17.0668 23.1985 16.61 22.6127 16.61 21.994ZM14.6045 24.4877C13.9295 24.3932 13.4225 24.928 13.4225 25.5715C13.4225 26.1902 13.88 26.7767 14.5025 26.8652C15.1798 26.9627 15.6875 26.4265 15.6875 25.7815C15.6875 25.1612 15.2345 24.568 14.6045 24.4877Z" fill="#00A6ED"/>
<path d="M9.50001 13.9293C9.49994 13.7048 9.56704 13.4854 9.69268 13.2993C9.81831 13.1133 9.99674 12.9691 10.205 12.8853C10.1346 12.9228 10.0748 12.9777 10.0313 13.0446C9.98785 13.1115 9.96201 13.1883 9.95624 13.268C9.95047 13.3476 9.96497 13.4273 9.99837 13.4998C10.0318 13.5723 10.083 13.6352 10.1473 13.6825L16.1495 14.656L18.9673 16.9165C19.5883 17.1415 20 17.734 20 18.394V29.689C20.0004 29.8021 19.9735 29.9136 19.9215 30.014C19.8695 30.1144 19.7939 30.2007 19.7013 30.2656C19.6086 30.3304 19.5017 30.3719 19.3895 30.3864C19.2774 30.4009 19.1634 30.3881 19.0573 30.349L10.376 27.169C10.1187 27.076 9.89647 26.9057 9.73966 26.6815C9.58286 26.4573 9.49915 26.1901 9.50001 25.9165V13.9293ZM12.4475 16.8565L11.36 18.124L11.3225 18.1615C11.105 18.4315 10.9775 18.784 10.9775 19.1965C10.9775 20.1565 11.705 21.0415 12.5975 21.169C12.6165 21.1725 12.6353 21.175 12.6538 21.1765C12.6728 21.178 12.6915 21.1805 12.71 21.184C13.505 21.2365 14.15 20.6365 14.2025 19.7815C14.2325 19.3615 14.12 18.9565 13.91 18.6115C13.8575 18.529 13.805 18.454 13.7525 18.379L12.7325 16.9015C12.7163 16.8767 12.6954 16.8553 12.671 16.8385C12.6465 16.8218 12.619 16.8101 12.59 16.804C12.5637 16.7993 12.5367 16.8017 12.5116 16.8109C12.4866 16.8201 12.4644 16.8359 12.4475 16.8565ZM13.7975 25.5715C13.7975 26.0215 14.135 26.434 14.555 26.494C14.975 26.554 15.3125 26.2315 15.3125 25.7815C15.3125 25.324 14.975 24.9115 14.555 24.859C14.135 24.799 13.7975 25.1215 13.7975 25.5715ZM17.7425 21.2815C17.3225 21.2215 16.985 21.544 16.985 21.994C16.985 22.444 17.3225 22.8565 17.7425 22.9165C18.1625 22.969 18.5 22.654 18.5 22.204C18.5 21.754 18.1625 21.334 17.7425 21.2815Z" fill="#0074BA"/>
<path d="M20.9604 16.9392L29.7354 13.7442C30.1479 13.5942 30.1479 13.0092 29.7354 12.8667L20.9604 9.67168C20.3379 9.44668 19.6554 9.44668 19.0329 9.67168L10.2654 12.8592C9.85293 13.0092 9.85293 13.5942 10.2654 13.7442L19.0329 16.9392C19.6554 17.1642 20.3379 17.1642 20.9604 16.9392ZM23.4729 18.1692C23.5254 18.1617 23.5704 18.1767 23.6079 18.2217L24.6054 19.3842C24.6129 19.3917 24.6204 19.3992 24.6204 19.4067L24.6279 19.4217C24.8304 19.6692 24.9429 19.9917 24.9429 20.3667C24.9429 21.2517 24.2754 22.0617 23.4579 22.1742C23.4204 22.1817 23.3904 22.1817 23.3529 22.1817C22.6254 22.2267 22.0329 21.6792 21.9804 20.8992C21.9579 20.5167 22.0554 20.1417 22.2429 19.8267C22.2879 19.7517 22.3329 19.6842 22.3854 19.6167L23.3229 18.2592C23.3754 18.2067 23.4279 18.1767 23.4729 18.1692ZM28.0554 22.9242C28.4754 22.8642 28.8129 23.1867 28.8129 23.6367C28.8129 24.0867 28.4754 24.4992 28.0554 24.5592C27.6354 24.6192 27.2979 24.2967 27.2979 23.8467C27.2979 23.3967 27.6354 22.9842 28.0554 22.9242Z" fill="#83CBFF"/>
</svg>
