<svg width="40" height="40" viewBox="0 0 40 40" fill="none" xmlns="http://www.w3.org/2000/svg">
<path d="M26.2791 22.4846L30.8231 21.3194C31.3146 21.1909 31.8337 21.448 31.9679 21.9277C32.1013 22.4075 31.8062 22.8873 31.3146 23.0159L28.5502 23.727L30.5271 24.8151C30.9564 25.055 31.1093 25.5776 30.8586 25.9889C30.6079 26.4001 30.0622 26.5458 29.6328 26.3059L27.656 25.2178L28.3991 27.8652C28.5324 28.345 28.2471 28.8248 27.7457 28.9533C27.6285 28.9842 27.5062 28.9926 27.3856 28.9778C27.2651 28.9631 27.1487 28.9257 27.0432 28.8676C26.9377 28.8095 26.8451 28.7319 26.7707 28.6393C26.6964 28.5467 26.6417 28.4409 26.6097 28.3279L25.3938 23.9754L23.336 22.8359C22.6943 23.5302 21.8384 24.0077 20.8942 24.1982V26.4515L24.2222 29.6387C24.5795 29.9814 24.5795 30.5469 24.2222 30.8896C23.864 31.2323 23.2738 31.2323 22.9155 30.8896L20.8942 28.9533V31.1381C20.8942 31.3667 20.8 31.5859 20.6323 31.7476C20.4646 31.9092 20.2372 32 20 32C19.7628 32 19.5354 31.9092 19.3677 31.7476C19.2 31.5859 19.1058 31.3667 19.1058 31.1381V28.9619L17.0845 30.8982C16.7262 31.2409 16.136 31.2409 15.7778 30.8982C15.6061 30.7321 15.5096 30.5072 15.5096 30.2727C15.5096 30.0383 15.6061 29.8134 15.7778 29.6473L19.1058 26.4601V24.2068C18.1307 24.0183 17.2987 23.5213 16.664 22.8445L14.6151 23.9754L13.3991 28.3279C13.2649 28.7991 12.7547 29.0818 12.2631 28.9533C12.0271 28.892 11.8259 28.7432 11.7035 28.5392C11.581 28.3353 11.5473 28.093 11.6098 27.8652L12.3529 25.2178L10.376 26.3144C10.1693 26.4267 9.92519 26.4564 9.69602 26.3971C9.46685 26.3379 9.27092 26.1944 9.15027 25.9974C9.09117 25.9014 9.0526 25.795 9.03684 25.6844C9.02109 25.5738 9.02846 25.4613 9.05853 25.3535C9.08861 25.2457 9.14077 25.1448 9.21194 25.0568C9.28311 24.9687 9.37185 24.8953 9.47294 24.8408L11.4489 23.7441L8.68538 23.033C8.44936 22.9717 8.24813 22.8228 8.12569 22.6189C8.00325 22.415 7.96959 22.1727 8.03205 21.9449C8.16628 21.4737 8.6765 21.1909 9.16805 21.3194L13.712 22.4846L15.7698 21.3451C15.609 20.9134 15.5243 20.4587 15.5191 20C15.5191 19.5288 15.6169 19.0747 15.7698 18.672L13.712 17.5325L9.16805 18.6977C9.05085 18.7286 8.92848 18.737 8.80794 18.7222C8.68739 18.7075 8.57104 18.6701 8.46553 18.612C8.36002 18.5539 8.26743 18.4763 8.19305 18.3837C8.11867 18.2911 8.06396 18.1853 8.03205 18.0723C7.89872 17.5925 8.19383 17.1127 8.68538 16.9841L11.4498 16.273L9.47294 15.1764C9.26899 15.0616 9.12052 14.8737 9.06005 14.6537C8.99957 14.4337 9.03201 14.1996 9.15027 14.0026C9.39205 13.5913 9.94671 13.4542 10.3672 13.6856L12.3529 14.7822L11.6098 12.1348C11.4765 11.6636 11.7716 11.1838 12.2631 11.0553C12.7547 10.9267 13.256 11.2095 13.3903 11.6807L14.6062 16.0331L16.6551 17.1641C17.2968 16.4698 18.1527 15.9923 19.0969 15.8018V13.5485L15.7689 10.3613C15.5972 10.1952 15.5007 9.9703 15.5007 9.73583C15.5007 9.50135 15.5972 9.27644 15.7689 9.11038C15.9433 8.9458 16.1777 8.85364 16.4218 8.85364C16.6659 8.85364 16.9003 8.9458 17.0747 9.11038L19.096 11.0467V8.86192C19.096 8.63332 19.1902 8.41409 19.3579 8.25245C19.5256 8.09081 19.7531 8 19.9902 8C20.2274 8 20.4548 8.09081 20.6225 8.25245C20.7902 8.41409 20.8844 8.63332 20.8844 8.86192V11.0467L22.9058 9.11038C23.0802 8.94555 23.3148 8.85322 23.5591 8.85322C23.8034 8.85322 24.038 8.94555 24.2124 9.11038C24.5698 9.45309 24.5698 10.0186 24.2124 10.3613L20.8844 13.5485V15.8018C21.8248 15.9905 22.6775 16.465 23.3173 17.1555L25.3742 16.016L26.5911 11.6636C26.7253 11.1923 27.2346 10.9096 27.7271 11.0381C28.2186 11.1666 28.5146 11.655 28.3804 12.1262L27.6373 14.7737L29.6142 13.6856C29.8209 13.5733 30.065 13.5436 30.2942 13.6029C30.5234 13.6621 30.7193 13.8056 30.8399 14.0026C30.9564 14.1986 30.9878 14.431 30.9273 14.6492C30.8669 14.8674 30.7195 15.0538 30.5173 15.1678L28.5413 16.2559L31.3048 16.967C31.7964 17.0955 32.0915 17.5839 31.9573 18.0551C31.8239 18.5263 31.3137 18.8091 30.8222 18.6806L26.2782 17.5154L24.2213 18.6549C24.3724 19.0747 24.4711 19.5288 24.4711 20C24.4711 20.4712 24.3733 20.9167 24.2213 21.3451L26.2791 22.4846ZM22.6747 20C22.6747 18.5803 21.4729 17.4297 19.9911 17.4297C19.2817 17.4276 18.6004 17.6972 18.0972 18.1793C17.5939 18.6613 17.3099 19.3162 17.3076 20C17.3076 21.4197 18.5093 22.5703 19.9911 22.5703C20.7006 22.5724 21.3818 22.3028 21.885 21.8207C22.3883 21.3387 22.6723 20.6838 22.6747 20Z" fill="#00A6ED"/>
</svg>
