<svg width="40" height="40" viewBox="0 0 40 40" fill="none" xmlns="http://www.w3.org/2000/svg">
<path d="M14.8569 26H13.1426V30H14.8569V26Z" fill="#7D4533"/>
<path d="M19.1909 20.665C19.4789 20.54 19.6794 20.385 19.7403 20.188C19.8457 19.858 19.9066 19.495 19.9066 19.112V18.48C19.9066 16.793 18.764 15.427 17.3506 15.395C17.3506 13.522 16.0683 12 14.4894 12C12.9106 12 11.6283 13.522 11.6283 15.395H11.5589C10.1283 15.395 8.95916 16.772 8.95916 18.48V19.112C8.95916 19.743 9.12544 20.333 9.3963 20.83C8.96955 21.1247 8.6162 21.5443 8.37129 22.0474C8.12637 22.5505 7.99839 23.1195 8.00002 23.698C8.00002 25.52 9.24716 27 10.7823 27H18.0749C19.6092 27 20.8572 25.52 20.8572 23.698C20.8634 23.0579 20.709 22.4297 20.4129 21.8907C20.1168 21.3518 19.692 20.9257 19.1909 20.665Z" fill="#00D26A"/>
<path d="M14 30H29.4286V17.497L21.77 9L17.4286 13.283V9.416C17.4299 9.36228 17.4221 9.30878 17.4055 9.25864C17.389 9.20849 17.364 9.16271 17.3321 9.12397C17.3001 9.08523 17.2619 9.05431 17.2196 9.03302C17.1773 9.01173 17.1318 9.00051 17.0857 9H15.2086C15.0114 9 14.8571 9.188 14.8571 9.416V15.82L14 16.666V30Z" fill="#F3C07B"/>
<path d="M21.6739 30H16.6261C16.5944 30 16.5713 29.97 16.5713 29.93V21.122C16.5713 20.501 16.963 20 17.449 20H20.8347C21.3207 20 21.7124 20.501 21.7124 21.122V29.93C21.721 29.97 21.6979 30 21.6739 30Z" fill="#8C5543"/>
<path d="M20.4286 26C20.5422 26 20.6512 25.9473 20.7316 25.8536C20.812 25.7598 20.8571 25.6326 20.8571 25.5C20.8571 25.3674 20.812 25.2402 20.7316 25.1464C20.6512 25.0527 20.5422 25 20.4286 25C20.3149 25 20.2059 25.0527 20.1255 25.1464C20.0452 25.2402 20 25.3674 20 25.5C20 25.6326 20.0452 25.7598 20.1255 25.8536C20.2059 25.9473 20.3149 26 20.4286 26Z" fill="#402A32"/>
<path d="M21.8827 31H16.4022C16.025 31 15.7139 30.549 15.7139 30C15.7139 29.451 16.0242 29 16.4022 29H21.8827C22.2599 29 22.571 29.451 22.571 30C22.571 30.549 22.2607 31 21.8827 31Z" fill="#D3D3D3"/>
<path d="M31.28 18.595L22.3057 8.285C21.9714 7.905 21.4314 7.905 21.0971 8.285L21.0886 8.295L12.0971 18.625C12.0176 18.7154 11.9543 18.8234 11.9111 18.9428C11.868 19.0622 11.8457 19.1904 11.8457 19.32C11.8457 19.4496 11.868 19.5778 11.9111 19.6972C11.9543 19.8166 12.0176 19.9246 12.0971 20.015C12.4314 20.395 12.9714 20.395 13.3057 20.015L21.6971 10.365L30.0714 19.985C30.4057 20.365 30.9457 20.365 31.28 19.985C31.3595 19.8946 31.4228 19.7866 31.466 19.6672C31.5092 19.5478 31.5314 19.4196 31.5314 19.29C31.5314 19.1604 31.5092 19.0322 31.466 18.9128C31.4228 18.7934 31.3595 18.6854 31.28 18.595Z" fill="#F8312F"/>
<path d="M32 32H8C8 30.9 8.77143 30 9.71428 30H30.2857C30.7404 30 31.1764 30.2107 31.4979 30.5858C31.8194 30.9609 32 31.4696 32 32Z" fill="#00F397"/>
<path d="M27.1007 25H24.0424C23.8799 24.9989 23.7244 24.9232 23.6095 24.7891C23.4946 24.6551 23.4296 24.4736 23.4287 24.284V20.716C23.4296 20.5264 23.4946 20.3449 23.6095 20.2109C23.7244 20.0768 23.8799 20.0011 24.0424 20H27.1007C27.2632 20.0011 27.4188 20.0768 27.5337 20.2109C27.6486 20.3449 27.7135 20.5264 27.7144 20.716V24.284C27.7135 24.4736 27.6486 24.6551 27.5337 24.7891C27.4188 24.9232 27.2632 24.9989 27.1007 25Z" fill="#83CBFF"/>
<path d="M28.8459 32C29.4617 31.6166 29.9258 30.969 30.1401 30.194C30.2344 29.873 30.2858 29.532 30.2858 29.181C30.2858 28.298 29.9773 27.495 29.4716 26.913C28.9644 26.3294 28.2811 26.0016 27.5687 26C26.4973 26 25.563 26.742 25.1173 27.806C25.0731 27.9143 25.0098 28.0105 24.9315 28.0882C24.8532 28.166 24.7617 28.2235 24.663 28.257C24.0116 28.498 23.5316 29.181 23.4459 29.993C23.4373 30.013 23.4373 30.033 23.4459 30.053C23.4287 30.113 23.4287 30.183 23.4287 30.254C23.4287 30.987 23.7544 31.619 24.243 31.99H28.8459V32Z" fill="#00D26A"/>
</svg>
