<svg width="40" height="40" viewBox="0 0 40 40" fill="none" xmlns="http://www.w3.org/2000/svg">
<path d="M17.3335 11.8572V9.71436H22.6668V11.8572C22.6708 12.2858 23.3388 12.4058 23.3388 12.4058L20.0002 13.5715L16.6602 12.4075C16.6602 12.4075 17.3348 12.2858 17.3335 11.8572Z" fill="#F8312F"/>
<path d="M8 19.1428C8 17.3242 9.12381 15.58 11.1242 14.2941C13.1246 13.0081 15.8377 12.2856 18.6667 12.2856H21.3333C24.1623 12.2856 26.8754 13.0081 28.8758 14.2941C30.8762 15.58 32 17.3242 32 19.1428V28.5714C32 29.4807 31.4381 30.3527 30.4379 30.9957C29.4377 31.6387 28.0812 31.9999 26.6667 31.9999H13.3333C11.9188 31.9999 10.5623 31.6387 9.5621 30.9957C8.5619 30.3527 8 29.4807 8 28.5714V19.1428Z" fill="#FBB8AB"/>
<path d="M21.3337 18.2858C21.3337 18.2858 20.0003 16.5715 18.667 18.2858C18.667 18.2858 14.667 22.143 14.667 24.7144C14.667 25.5715 15.3337 27.7144 20.0003 27.7144C24.667 27.7144 25.3337 25.5715 25.3337 24.7144C25.3337 22.143 21.3337 18.2858 21.3337 18.2858Z" fill="#F3EEF8"/>
<path d="M17.3334 10.5714C14.6668 9.71429 16.0001 8 18.6668 8C20.0001 8 26.6668 8.85714 26.6668 8.85714C28.6668 9.28571 28.0001 10.5714 26.6668 10.5714H17.3334Z" fill="#FF8687"/>
</svg>
