<svg width="40" height="40" viewBox="0 0 40 40" fill="none" xmlns="http://www.w3.org/2000/svg">
<path d="M8 9.71429C8 9.25963 8.31607 8.82359 8.87868 8.5021C9.44129 8.18061 10.2044 8 11 8H29C29.7956 8 30.5587 8.18061 31.1213 8.5021C31.6839 8.82359 32 9.25963 32 9.71429V30.2857C32 30.7404 31.6839 31.1764 31.1213 31.4979C30.5587 31.8194 29.7956 32 29 32H11C10.2044 32 9.44129 31.8194 8.87868 31.4979C8.31607 31.1764 8 30.7404 8 30.2857V9.71429Z" fill="#E19747"/>
<path d="M11 10.5715C11 10.3442 11.158 10.1262 11.4393 9.96541C11.7206 9.80466 12.1022 9.71436 12.5 9.71436H27.5C27.8978 9.71436 28.2794 9.80466 28.5607 9.96541C28.842 10.1262 29 10.3442 29 10.5715V16.5715C29 16.7988 28.842 17.0168 28.5607 17.1776C28.2794 17.3383 27.8978 17.4286 27.5 17.4286H12.5C12.1022 17.4286 11.7206 17.3383 11.4393 17.1776C11.158 17.0168 11 16.7988 11 16.5715V10.5715ZM11 20.8572C11 20.6299 11.158 20.4119 11.4393 20.2511C11.7206 20.0904 12.1022 20.0001 12.5 20.0001H27.5C27.8978 20.0001 28.2794 20.0904 28.5607 20.2511C28.842 20.4119 29 20.6299 29 20.8572V23.4286C29 23.656 28.842 23.874 28.5607 24.0347C28.2794 24.1955 27.8978 24.2858 27.5 24.2858H12.5C12.1022 24.2858 11.7206 24.1955 11.4393 24.0347C11.158 23.874 11 23.656 11 23.4286V20.8572ZM12.5 26.0001C12.1022 26.0001 11.7206 26.0904 11.4393 26.2511C11.158 26.4119 11 26.6299 11 26.8572V29.4286C11 29.656 11.158 29.874 11.4393 30.0347C11.7206 30.1955 12.1022 30.2858 12.5 30.2858H27.5C27.8978 30.2858 28.2794 30.1955 28.5607 30.0347C28.842 29.874 29 29.656 29 29.4286V26.8572C29 26.6299 28.842 26.4119 28.5607 26.2511C28.2794 26.0904 27.8978 26.0001 27.5 26.0001H12.5Z" fill="#C4622D"/>
<path d="M30.875 18.7141C30.875 18.9414 30.717 19.1594 30.4357 19.3202C30.1544 19.4809 29.7728 19.5712 29.375 19.5712C28.9772 19.5712 28.5956 19.4809 28.3143 19.3202C28.033 19.1594 27.875 18.9414 27.875 18.7141C27.875 18.4867 28.033 18.2687 28.3143 18.108C28.5956 17.9472 28.9772 17.8569 29.375 17.8569C29.7728 17.8569 30.1544 17.9472 30.4357 18.108C30.717 18.2687 30.875 18.4867 30.875 18.7141Z" fill="#F9C23C"/>
</svg>
