<svg width="40" height="40" viewBox="0 0 40 40" fill="none" xmlns="http://www.w3.org/2000/svg">
<path d="M24.6119 24.6154L19.1444 30.0869C17.92 31.312 16.2596 32.0002 14.5282 32.0002C12.7968 32.0002 11.1363 31.312 9.91198 30.0869C8.68775 28.8617 8 27.2 8 25.4674C8 23.7348 8.68775 22.0731 9.91198 20.8479L15.3795 15.3765L22.774 17.5899L24.6119 24.6154Z" fill="#FCD53F"/>
<path d="M15.3877 15.3848L20.8552 9.91334C22.0796 8.68824 23.7401 8 25.4714 8C27.2028 8 28.8633 8.68824 30.0876 9.91334C31.3119 11.1385 31.9996 12.8002 31.9996 14.5328C31.9996 16.2654 31.3119 17.9271 30.0876 19.1523L24.6201 24.6237L15.3877 15.3848Z" fill="#F8312F"/>
<path d="M28.5355 16.5617C28.9894 16.5617 29.4246 16.3813 29.7456 16.0601C30.0665 15.739 30.2468 15.3034 30.2468 14.8492C30.2468 14.395 30.0665 13.9595 29.7456 13.6383C29.4246 13.3171 28.9894 13.1367 28.5355 13.1367C28.0816 13.1367 27.6464 13.3171 27.3254 13.6383C27.0045 13.9595 26.8242 14.395 26.8242 14.8492C26.8242 15.3034 27.0045 15.739 27.3254 16.0601C27.6464 16.3813 28.0816 16.5617 28.5355 16.5617Z" fill="#F4F4F4"/>
</svg>
