<svg width="40" height="40" viewBox="0 0 40 40" fill="none" xmlns="http://www.w3.org/2000/svg">
<path d="M23.6152 13.3489L25.3318 11.6323L27.2784 12.7206L28.3666 14.6672L26.6501 16.3837L23.6152 13.3489Z" fill="#636363"/>
<path d="M26.2881 24.6028C27.5512 23.1248 28.2106 21.2249 28.1345 19.2823C28.0585 17.3396 27.2527 15.497 25.878 14.1223C24.5033 12.7476 22.6607 11.9418 20.718 11.8658C18.7753 11.7898 16.8754 12.4491 15.3975 13.7122L19.5549 20.4453L26.2881 24.6028Z" fill="#9B9B9B"/>
<path d="M31.3706 8.62865C31.5699 8.82791 31.728 9.06447 31.8359 9.32483C31.9438 9.58519 31.9993 9.86425 31.9993 10.1461C31.9993 10.4279 31.9438 10.707 31.8359 10.9673C31.728 11.2277 31.5699 11.4642 31.3706 11.6635L28.3667 14.6674L25.3318 11.6326L28.3358 8.62865C28.535 8.42935 28.7716 8.27125 29.0319 8.16338C29.2923 8.05552 29.5714 8 29.8532 8C30.135 8 30.4141 8.05552 30.6744 8.16338C30.9348 8.27125 31.1714 8.42935 31.3706 8.62865ZM15.7328 13.9671C15.2081 13.4519 14.5012 13.1648 13.7658 13.1682C13.0305 13.1716 12.3262 13.4652 11.8063 13.9851C11.2863 14.5051 10.9927 15.2094 10.9893 15.9447C10.9859 16.6801 11.273 17.387 11.7882 17.9117L22.5167 28.6401C23.0414 29.1553 23.7483 29.4424 24.4837 29.439C25.219 29.4356 25.9233 29.142 26.4432 28.622C26.9632 28.1021 27.2568 27.3978 27.2602 26.6625C27.2636 25.9271 26.9765 25.2202 26.4613 24.6955L15.7328 13.9671Z" fill="#BEBEBE"/>
<path d="M13.169 20.8233C13.4101 21.0647 13.5455 21.3919 13.5455 21.7331C13.5455 22.0742 13.4101 22.4014 13.169 22.6428L10.1651 25.6468C9.92102 25.8742 9.59823 25.998 9.2647 25.9921C8.93117 25.9862 8.61295 25.8511 8.37707 25.6152C8.1412 25.3793 8.00609 25.0611 8.0002 24.7276C7.99432 24.3941 8.11812 24.0713 8.34553 23.8272L11.3495 20.8233C11.5909 20.5822 11.9181 20.4468 12.2593 20.4468C12.6004 20.4468 12.9276 20.5822 13.169 20.8233ZM16.173 23.8272C16.4141 24.0686 16.5495 24.3958 16.5495 24.737C16.5495 25.0782 16.4141 25.4054 16.173 25.6468L13.169 28.6507C12.925 28.8781 12.6022 29.0019 12.2687 28.996C11.9351 28.9902 11.6169 28.855 11.381 28.6192C11.1452 28.3833 11.01 28.0651 11.0042 27.7315C10.9983 27.398 11.1221 27.0752 11.3495 26.8312L14.3535 23.8272C14.5948 23.5861 14.9221 23.4507 15.2632 23.4507C15.6044 23.4507 15.9316 23.5861 16.173 23.8272ZM19.177 28.6507C19.4044 28.4067 19.5282 28.0839 19.5223 27.7503C19.5164 27.4168 19.3813 27.0986 19.1454 26.8627C18.9095 26.6268 18.5913 26.4917 18.2578 26.4859C17.9243 26.48 17.6015 26.6038 17.3574 26.8312L14.3535 29.8351C14.126 30.0792 14.0022 30.402 14.0081 30.7355C14.014 31.069 14.1491 31.3872 14.385 31.6231C14.6209 31.859 14.9391 31.9941 15.2726 32C15.6062 32.0059 15.929 31.8821 16.173 31.6547L19.177 28.6507Z" fill="#3F5FFF"/>
</svg>
