<svg width="32" height="32" viewBox="0 0 32 32" fill="none" xmlns="http://www.w3.org/2000/svg">
<path d="M1.00003 28.205C0.972533 29.695 2.03003 30.78 4.76753 30.8875C7.50503 30.995 26.0675 30.97 27.64 30.9425C29.2125 30.915 31.0275 30.4275 31.055 28.3125C31.0825 26.1975 28.21 25.71 28.21 25.71C28.21 25.71 5.12003 25.7375 4.17253 25.7925C3.22503 25.8475 1.03253 26.335 1.00003 28.205Z" fill="#B7D118"/>
<path d="M23.6176 26.6C23.6176 26.6 29.5751 26.64 29.8626 26.58C30.1501 26.5175 30.3801 26.165 30.4201 25.815C30.4001 24.5575 28.9551 24.4775 28.9551 24.4775C28.9551 24.4775 29.1951 23.68 28.5351 23.02C27.6701 22.0725 26.3976 22.4575 26.3976 22.4575C26.3976 22.4575 26.1926 21.7775 25.5926 21.405C24.9951 21.035 23.6751 21.1375 23.6751 21.1375L23.6176 26.6ZM6.46506 22.995C6.46506 22.995 5.69756 22.6425 5.07256 22.8975C4.12506 23.285 4.16506 23.94 3.91256 24.1925C3.66256 24.4425 2.30256 24.3525 1.94006 25.525C1.78506 26.0275 1.92006 26.4925 2.34506 26.4925C2.77006 26.4925 5.92006 26.395 5.92006 26.395L6.46506 22.995Z" fill="#5A9821"/>
<path d="M5.92486 22.2998C5.92486 22.2998 5.94486 23.8073 5.92486 24.1173C5.90486 24.4273 5.65486 25.4898 5.45986 25.8748C5.26736 26.2623 5.22736 26.6098 5.49736 26.6673C5.76736 26.7248 7.54486 26.6673 7.54486 26.6673L7.25736 22.2998H5.92486Z" fill="#875B50"/>
<path d="M7.17994 22.6799C4.89994 22.7574 2.42744 21.2249 1.34244 17.0099C0.257443 12.7949 1.42494 7.82738 2.76244 5.69738C4.09994 3.56738 5.26744 2.57738 6.68744 2.61738C8.42994 2.66988 10.2499 5.08737 11.0274 7.11487C11.7824 9.07987 11.7599 10.7224 11.7599 10.7224L7.87744 22.2599L7.17994 22.6799Z" fill="#B7D118"/>
<path d="M16.2024 10.0225L7.04492 19.2225L7.11742 26.5175L13.9224 27.5925L25.2024 26.75L25.2299 18.4875L16.2024 10.0225Z" fill="#FFF3E1"/>
<path d="M6.70264 26.235L7.33514 25.885V19.02L6.74764 19.4125C6.74764 19.4125 6.81264 26.235 6.70264 26.235ZM24.8851 19.39V25.8425L25.5176 26.1925V19.63L24.8851 19.39Z" fill="#5F4E47"/>
<path d="M16.2651 11.0051L6.74756 19.9126V17.6676L16.2751 8.64258L25.5176 18.2126V20.1101L16.2651 11.0051Z" fill="#BCAA93"/>
<path d="M5.81238 17.2801L5.25488 18.3101L6.75238 18.2876C6.75238 18.2876 16.0899 9.2051 16.2924 9.1951C16.5349 9.1851 25.5124 18.4451 25.5124 18.4451L26.8399 18.4251L16.8799 7.6951L15.4174 7.6001L5.81238 17.2801Z" fill="#AB5832"/>
<path d="M4.08987 18.055C3.93487 18.245 4.08737 18.3475 4.21487 18.3475C4.34237 18.3475 5.80487 18.305 5.80487 18.305L15.8874 8.49503C15.8874 8.49503 16.1199 8.25754 16.2849 8.26504C16.4649 8.27504 16.6974 8.50004 16.6974 8.50004L26.8274 18.43C26.8274 18.43 27.9824 18.4325 28.1674 18.3875C28.3674 18.3375 28.2649 18.15 28.0199 17.885C27.8399 17.69 17.5949 7.55754 17.4274 7.38254C16.9249 6.86254 16.6774 6.56003 16.2024 6.58003C15.7249 6.60003 15.4424 6.95253 14.9649 7.39253C14.8224 7.52753 4.15737 17.9725 4.08987 18.055Z" fill="#ED6C31"/>
<path d="M22.1249 21.61H24.1899V19.89C24.1899 19.57 23.9299 19.3125 23.6124 19.3125H22.1249V21.61ZM21.5024 21.61V19.3125H19.8899C19.5699 19.3125 19.3124 19.5725 19.3124 19.89V21.61H21.5024ZM21.5024 22.26H19.3124V23.8725C19.3124 24.1925 19.5724 24.45 19.8899 24.45H21.5024V22.26ZM22.1249 22.26V24.45H23.6124C23.9324 24.45 24.1899 24.19 24.1899 23.8725V22.26H22.1249ZM10.6899 21.61H12.7549V19.89C12.7549 19.57 12.4949 19.3125 12.1774 19.3125H10.6899V21.61ZM10.0674 21.61V19.3125H8.45494C8.13494 19.3125 7.87744 19.5725 7.87744 19.89V21.61H10.0674ZM10.0674 22.26H7.87744V23.8725C7.87744 24.1925 8.13744 24.45 8.45494 24.45H10.0674V22.26ZM10.6899 22.26V24.45H12.1774C12.4974 24.45 12.7549 24.19 12.7549 23.8725V22.26H10.6899Z" fill="#A6CFD5"/>
<path d="M13.4274 26.8276C13.4274 26.8276 13.3974 21.8426 13.4274 20.5851C13.4574 19.3276 14.6399 18.2401 16.0049 18.2876C17.6974 18.3451 18.5674 19.2976 18.6299 20.5251C18.6924 21.7526 18.6924 26.9076 18.6924 26.9076L13.4274 26.8276Z" fill="#D27857"/>
<path d="M14.0599 27.0977C14.0599 27.0977 14.0349 21.7852 14.0599 20.8027C14.0899 19.5827 15.0099 18.9427 16.0774 19.0052C17.3199 19.0752 17.9349 19.7377 17.9824 20.6977C18.0299 21.6577 18.0299 27.1027 18.0299 27.1027L14.0599 27.0977Z" fill="#AB5932"/>
<path d="M17.3877 22.7674C17.3827 21.8924 17.3752 21.1224 17.3627 20.8849C17.3302 20.2499 16.8802 19.7549 16.0027 19.7249C15.2952 19.6999 14.7127 20.2524 14.6952 20.9049C14.6902 21.1449 14.6902 21.8999 14.6952 22.7549L17.3877 22.7674ZM14.7052 23.7474C14.7127 24.9174 14.7227 25.9949 14.7227 25.9949L17.3952 26.0024C17.3952 26.0024 17.3952 24.9299 17.3902 23.7574L14.7052 23.7474Z" fill="#D27857"/>
<path d="M17.3976 23.2173C17.3876 23.4998 17.5026 23.7323 17.8376 23.7323C18.1726 23.7323 18.2976 23.5748 18.3201 23.2698C18.3401 22.9973 18.1526 22.7548 17.8376 22.7773C17.5226 22.7973 17.4051 23.0173 17.3976 23.2173Z" fill="#FFBA02"/>
<path d="M19.2325 28.4799C19.2325 28.4799 21.405 28.4899 22.99 28.4949C24.6175 28.4974 25.575 28.4574 25.8675 28.2974C26.0875 28.1774 26.15 26.1524 25.1575 25.5924C24.1775 25.0399 23.4725 25.4399 23.1275 25.4749C22.67 25.5199 22.45 25.1924 21.675 25.1724C19.9475 25.1274 19.4325 26.5599 19.4325 26.5599L19.2325 28.4799ZM6.52995 28.3599C6.73245 28.5524 7.97245 28.4824 9.66245 28.4699C11.3525 28.4574 12.73 28.4674 12.73 28.4674L13.3975 26.8349L12.7125 26.5374C12.7125 26.5374 12.69 25.6274 11.6125 25.3374C10.8675 25.1374 10.2175 25.4674 9.59245 25.4799C8.96495 25.4924 8.64995 25.2324 7.95245 25.3974C7.30245 25.5524 6.67745 26.0024 6.47245 26.8574C6.32995 27.4499 6.36495 28.2049 6.52995 28.3599Z" fill="#728037"/>
<path d="M12.5698 30.2073L12.5823 28.4673H12.7098L12.7073 26.5298H19.4523L19.4298 28.4673H19.5798V30.1623C19.5798 30.1598 12.5698 30.2173 12.5698 30.2073Z" fill="#B0B0B0"/>
<path d="M19.5824 29.4474V30.1599L12.5674 30.2074L12.5749 29.4399L19.5824 29.4474ZM12.7074 27.7124L19.4449 27.7174V28.4649L12.7074 28.4674V27.7124Z" fill="#9B9B9B"/>
<path d="M20.0502 27.0101C20.0602 27.2176 20.2002 27.4151 20.4902 27.4151C20.7802 27.4151 20.9177 27.1851 20.9302 27.0001C20.9427 26.8151 20.8027 26.5376 20.4802 26.5501C20.1552 26.5601 20.0377 26.7776 20.0502 27.0101ZM21.5752 26.1576C21.5552 26.3551 21.7477 26.6301 22.0252 26.5976C22.3027 26.5651 22.4402 26.3676 22.4177 26.1351C22.3952 25.9051 22.1627 25.7876 21.9777 25.7876C21.7952 25.7876 21.5977 25.9376 21.5752 26.1576ZM24.0352 27.2626C24.0502 27.5276 24.1727 27.7026 24.4752 27.7026C24.7752 27.7026 24.9027 27.4851 24.9027 27.2876C24.9027 26.9976 24.7527 26.8251 24.4527 26.8251C24.1527 26.8251 24.0252 27.0451 24.0352 27.2626Z" fill="#FDB900"/>
<path d="M7.52758 27.0902C7.25008 27.1127 7.11258 27.3327 7.12258 27.5302C7.13508 27.7277 7.27258 27.9577 7.52758 27.9352C7.78258 27.9127 7.95508 27.7627 7.94258 27.5302C7.93508 27.3552 7.81508 27.0677 7.52758 27.0902ZM9.46758 25.8652C9.24258 25.8652 9.06258 26.0952 9.06258 26.2452C9.06258 26.3952 9.17758 26.6727 9.46758 26.6602C9.75758 26.6477 9.84758 26.4402 9.86008 26.2327C9.87258 26.0252 9.65258 25.8652 9.46758 25.8652ZM9.98758 27.3227C9.96758 27.5177 10.0926 27.8077 10.4026 27.7952C10.7151 27.7827 10.8176 27.5302 10.8076 27.3327C10.7951 27.1352 10.6001 26.9627 10.4026 26.9527C10.2076 26.9402 10.0101 27.0902 9.98758 27.3227ZM11.1901 26.6277C11.2001 26.7902 11.2951 27.0202 11.5701 26.9852C11.8476 26.9502 11.8801 26.7877 11.8701 26.6152C11.8576 26.4077 11.7076 26.3027 11.5226 26.3027C11.3376 26.3027 11.1776 26.4552 11.1901 26.6277Z" fill="#FEB800"/>
</svg>
